<mxfile host="app.diagrams.net" agent="Mozilla/5.0 (Windows NT 10.0; Win64; x64) AppleWebKit/537.36 (KHTML, like Gecko) Chrome/135.0.0.0 Safari/537.36" version="26.2.5">
  <diagram name="Page-1" id="mLMAdnTlO9L2Cyo7H0gj">
    <mxGraphModel dx="926" dy="528" grid="1" gridSize="10" guides="1" tooltips="1" connect="1" arrows="1" fold="1" page="1" pageScale="1" pageWidth="850" pageHeight="1100" math="0" shadow="0">
      <root>
        <mxCell id="0" />
        <mxCell id="1" parent="0" />
        <mxCell id="5Zi_9TFZ9G4qRECRNmJ1-1" value="Start" style="ellipse;whiteSpace=wrap;html=1;aspect=fixed;" vertex="1" parent="1">
          <mxGeometry x="360" y="10" width="80" height="80" as="geometry" />
        </mxCell>
        <mxCell id="5Zi_9TFZ9G4qRECRNmJ1-4" value="Select Store" style="rounded=1;whiteSpace=wrap;html=1;" vertex="1" parent="1">
          <mxGeometry x="340" y="130" width="120" height="60" as="geometry" />
        </mxCell>
        <mxCell id="5Zi_9TFZ9G4qRECRNmJ1-5" value="Browse items" style="rhombus;whiteSpace=wrap;html=1;" vertex="1" parent="1">
          <mxGeometry x="345" y="220" width="110" height="110" as="geometry" />
        </mxCell>
        <mxCell id="5Zi_9TFZ9G4qRECRNmJ1-6" value="Not in Stock" style="rounded=1;whiteSpace=wrap;html=1;" vertex="1" parent="1">
          <mxGeometry x="200" y="350" width="120" height="60" as="geometry" />
        </mxCell>
        <mxCell id="5Zi_9TFZ9G4qRECRNmJ1-7" value="In Stock" style="rounded=1;whiteSpace=wrap;html=1;" vertex="1" parent="1">
          <mxGeometry x="470" y="350" width="120" height="60" as="geometry" />
        </mxCell>
        <mxCell id="5Zi_9TFZ9G4qRECRNmJ1-8" value="Add item to Cart" style="rhombus;whiteSpace=wrap;html=1;" vertex="1" parent="1">
          <mxGeometry x="470" y="440" width="130" height="130" as="geometry" />
        </mxCell>
        <mxCell id="5Zi_9TFZ9G4qRECRNmJ1-9" value="Item not added to Cart" style="rounded=1;whiteSpace=wrap;html=1;" vertex="1" parent="1">
          <mxGeometry x="290" y="530" width="120" height="60" as="geometry" />
        </mxCell>
        <mxCell id="5Zi_9TFZ9G4qRECRNmJ1-10" value="Item added to Cart" style="rounded=1;whiteSpace=wrap;html=1;" vertex="1" parent="1">
          <mxGeometry x="650" y="510" width="120" height="60" as="geometry" />
        </mxCell>
        <mxCell id="5Zi_9TFZ9G4qRECRNmJ1-12" value="Complete Order?" style="rhombus;whiteSpace=wrap;html=1;" vertex="1" parent="1">
          <mxGeometry x="475" y="620" width="120" height="110" as="geometry" />
        </mxCell>
        <mxCell id="5Zi_9TFZ9G4qRECRNmJ1-13" value="Checkout, submit info and Pay" style="rounded=1;whiteSpace=wrap;html=1;" vertex="1" parent="1">
          <mxGeometry x="475" y="790" width="120" height="60" as="geometry" />
        </mxCell>
        <mxCell id="5Zi_9TFZ9G4qRECRNmJ1-14" value="Finish" style="ellipse;whiteSpace=wrap;html=1;aspect=fixed;" vertex="1" parent="1">
          <mxGeometry x="495" y="910" width="80" height="80" as="geometry" />
        </mxCell>
        <mxCell id="5Zi_9TFZ9G4qRECRNmJ1-15" value="" style="endArrow=classic;html=1;rounded=0;entryX=1;entryY=0;entryDx=0;entryDy=0;" edge="1" parent="1" source="5Zi_9TFZ9G4qRECRNmJ1-5" target="5Zi_9TFZ9G4qRECRNmJ1-6">
          <mxGeometry width="50" height="50" relative="1" as="geometry">
            <mxPoint x="400" y="500" as="sourcePoint" />
            <mxPoint x="450" y="450" as="targetPoint" />
          </mxGeometry>
        </mxCell>
        <mxCell id="5Zi_9TFZ9G4qRECRNmJ1-16" value="" style="endArrow=classic;html=1;rounded=0;exitX=0;exitY=0;exitDx=0;exitDy=0;entryX=0;entryY=0.5;entryDx=0;entryDy=0;" edge="1" parent="1" source="5Zi_9TFZ9G4qRECRNmJ1-6" target="5Zi_9TFZ9G4qRECRNmJ1-5">
          <mxGeometry width="50" height="50" relative="1" as="geometry">
            <mxPoint x="400" y="400" as="sourcePoint" />
            <mxPoint x="450" y="350" as="targetPoint" />
          </mxGeometry>
        </mxCell>
        <mxCell id="5Zi_9TFZ9G4qRECRNmJ1-17" value="" style="endArrow=classic;html=1;rounded=0;entryX=0;entryY=0;entryDx=0;entryDy=0;exitX=1;exitY=1;exitDx=0;exitDy=0;" edge="1" parent="1" source="5Zi_9TFZ9G4qRECRNmJ1-5" target="5Zi_9TFZ9G4qRECRNmJ1-7">
          <mxGeometry width="50" height="50" relative="1" as="geometry">
            <mxPoint x="400" y="400" as="sourcePoint" />
            <mxPoint x="450" y="350" as="targetPoint" />
          </mxGeometry>
        </mxCell>
        <mxCell id="5Zi_9TFZ9G4qRECRNmJ1-18" value="" style="endArrow=classic;html=1;rounded=0;entryX=0.5;entryY=0;entryDx=0;entryDy=0;exitX=0.5;exitY=1;exitDx=0;exitDy=0;" edge="1" parent="1" source="5Zi_9TFZ9G4qRECRNmJ1-7" target="5Zi_9TFZ9G4qRECRNmJ1-8">
          <mxGeometry width="50" height="50" relative="1" as="geometry">
            <mxPoint x="400" y="500" as="sourcePoint" />
            <mxPoint x="450" y="450" as="targetPoint" />
          </mxGeometry>
        </mxCell>
        <mxCell id="5Zi_9TFZ9G4qRECRNmJ1-19" value="No" style="endArrow=classic;html=1;rounded=0;entryX=1;entryY=0;entryDx=0;entryDy=0;exitX=0;exitY=0.5;exitDx=0;exitDy=0;" edge="1" parent="1" source="5Zi_9TFZ9G4qRECRNmJ1-8" target="5Zi_9TFZ9G4qRECRNmJ1-9">
          <mxGeometry width="50" height="50" relative="1" as="geometry">
            <mxPoint x="400" y="500" as="sourcePoint" />
            <mxPoint x="450" y="450" as="targetPoint" />
          </mxGeometry>
        </mxCell>
        <mxCell id="5Zi_9TFZ9G4qRECRNmJ1-20" value="" style="endArrow=classic;html=1;rounded=0;exitX=0.5;exitY=1;exitDx=0;exitDy=0;entryX=0;entryY=0.5;entryDx=0;entryDy=0;" edge="1" parent="1" source="5Zi_9TFZ9G4qRECRNmJ1-9" target="5Zi_9TFZ9G4qRECRNmJ1-12">
          <mxGeometry width="50" height="50" relative="1" as="geometry">
            <mxPoint x="400" y="600" as="sourcePoint" />
            <mxPoint x="450" y="550" as="targetPoint" />
          </mxGeometry>
        </mxCell>
        <mxCell id="5Zi_9TFZ9G4qRECRNmJ1-21" value="No" style="endArrow=classic;html=1;rounded=0;exitX=0.5;exitY=0;exitDx=0;exitDy=0;" edge="1" parent="1" source="5Zi_9TFZ9G4qRECRNmJ1-12" target="5Zi_9TFZ9G4qRECRNmJ1-8">
          <mxGeometry width="50" height="50" relative="1" as="geometry">
            <mxPoint x="400" y="600" as="sourcePoint" />
            <mxPoint x="450" y="550" as="targetPoint" />
          </mxGeometry>
        </mxCell>
        <mxCell id="5Zi_9TFZ9G4qRECRNmJ1-22" value="Yes" style="endArrow=classic;html=1;rounded=0;entryX=0;entryY=0.75;entryDx=0;entryDy=0;exitX=1;exitY=0.5;exitDx=0;exitDy=0;" edge="1" parent="1" source="5Zi_9TFZ9G4qRECRNmJ1-8" target="5Zi_9TFZ9G4qRECRNmJ1-10">
          <mxGeometry width="50" height="50" relative="1" as="geometry">
            <mxPoint x="400" y="600" as="sourcePoint" />
            <mxPoint x="450" y="550" as="targetPoint" />
          </mxGeometry>
        </mxCell>
        <mxCell id="5Zi_9TFZ9G4qRECRNmJ1-23" value="" style="endArrow=classic;html=1;rounded=0;entryX=1;entryY=0.5;entryDx=0;entryDy=0;exitX=0.07;exitY=0.983;exitDx=0;exitDy=0;exitPerimeter=0;" edge="1" parent="1" source="5Zi_9TFZ9G4qRECRNmJ1-10" target="5Zi_9TFZ9G4qRECRNmJ1-12">
          <mxGeometry width="50" height="50" relative="1" as="geometry">
            <mxPoint x="400" y="600" as="sourcePoint" />
            <mxPoint x="450" y="550" as="targetPoint" />
          </mxGeometry>
        </mxCell>
        <mxCell id="5Zi_9TFZ9G4qRECRNmJ1-24" value="Yes" style="endArrow=classic;html=1;rounded=0;entryX=0.5;entryY=0;entryDx=0;entryDy=0;exitX=0.5;exitY=1;exitDx=0;exitDy=0;" edge="1" parent="1" source="5Zi_9TFZ9G4qRECRNmJ1-12" target="5Zi_9TFZ9G4qRECRNmJ1-13">
          <mxGeometry width="50" height="50" relative="1" as="geometry">
            <mxPoint x="400" y="810" as="sourcePoint" />
            <mxPoint x="450" y="760" as="targetPoint" />
          </mxGeometry>
        </mxCell>
        <mxCell id="5Zi_9TFZ9G4qRECRNmJ1-25" value="" style="endArrow=classic;html=1;rounded=0;entryX=0.5;entryY=0;entryDx=0;entryDy=0;exitX=0.5;exitY=1;exitDx=0;exitDy=0;" edge="1" parent="1" source="5Zi_9TFZ9G4qRECRNmJ1-4" target="5Zi_9TFZ9G4qRECRNmJ1-5">
          <mxGeometry width="50" height="50" relative="1" as="geometry">
            <mxPoint x="400" y="410" as="sourcePoint" />
            <mxPoint x="450" y="360" as="targetPoint" />
          </mxGeometry>
        </mxCell>
        <mxCell id="5Zi_9TFZ9G4qRECRNmJ1-26" value="" style="endArrow=classic;html=1;rounded=0;entryX=0.5;entryY=0;entryDx=0;entryDy=0;exitX=0.5;exitY=1;exitDx=0;exitDy=0;" edge="1" parent="1" source="5Zi_9TFZ9G4qRECRNmJ1-13" target="5Zi_9TFZ9G4qRECRNmJ1-14">
          <mxGeometry width="50" height="50" relative="1" as="geometry">
            <mxPoint x="400" y="810" as="sourcePoint" />
            <mxPoint x="450" y="760" as="targetPoint" />
          </mxGeometry>
        </mxCell>
      </root>
    </mxGraphModel>
  </diagram>
</mxfile>
